<mxfile host="app.diagrams.net" modified="2024-03-13T20:02:32.717Z" agent="Mozilla/5.0 (Windows NT 10.0; Win64; x64) AppleWebKit/537.36 (KHTML, like Gecko) Chrome/121.0.0.0 Safari/537.36 OPR/107.0.0.0" etag="XE_t-pibMrgpt7yn0yN_" version="24.0.6" type="github">
  <diagram name="Página-1" id="g378zbbsiAs3GmhZLd2c">
    <mxGraphModel dx="1097" dy="653" grid="1" gridSize="10" guides="1" tooltips="1" connect="1" arrows="1" fold="1" page="1" pageScale="1" pageWidth="827" pageHeight="1169" math="0" shadow="0">
      <root>
        <mxCell id="0" />
        <mxCell id="1" parent="0" />
        <mxCell id="bCXpYe_5tngzSjJ2iyfP-2" style="edgeStyle=orthogonalEdgeStyle;rounded=0;orthogonalLoop=1;jettySize=auto;html=1;exitX=0.5;exitY=1;exitDx=0;exitDy=0;" edge="1" parent="1" source="bCXpYe_5tngzSjJ2iyfP-1" target="bCXpYe_5tngzSjJ2iyfP-3">
          <mxGeometry relative="1" as="geometry">
            <mxPoint x="420" y="120" as="targetPoint" />
            <Array as="points">
              <mxPoint x="100" y="70" />
            </Array>
          </mxGeometry>
        </mxCell>
        <mxCell id="bCXpYe_5tngzSjJ2iyfP-1" value="Inicio" style="ellipse;whiteSpace=wrap;html=1;" vertex="1" parent="1">
          <mxGeometry x="40" y="30" width="120" height="80" as="geometry" />
        </mxCell>
        <mxCell id="bCXpYe_5tngzSjJ2iyfP-4" style="edgeStyle=orthogonalEdgeStyle;rounded=0;orthogonalLoop=1;jettySize=auto;html=1;exitX=0.5;exitY=1;exitDx=0;exitDy=0;" edge="1" parent="1" source="bCXpYe_5tngzSjJ2iyfP-3" target="bCXpYe_5tngzSjJ2iyfP-5">
          <mxGeometry relative="1" as="geometry">
            <mxPoint x="420" y="210" as="targetPoint" />
            <Array as="points">
              <mxPoint x="310" y="70" />
            </Array>
          </mxGeometry>
        </mxCell>
        <mxCell id="bCXpYe_5tngzSjJ2iyfP-3" value="Abrir Pagina&lt;div&gt;de Login&lt;/div&gt;" style="rounded=0;whiteSpace=wrap;html=1;" vertex="1" parent="1">
          <mxGeometry x="250" y="40" width="120" height="60" as="geometry" />
        </mxCell>
        <mxCell id="bCXpYe_5tngzSjJ2iyfP-6" style="edgeStyle=orthogonalEdgeStyle;rounded=0;orthogonalLoop=1;jettySize=auto;html=1;entryX=0.5;entryY=0;entryDx=0;entryDy=0;" edge="1" parent="1" source="bCXpYe_5tngzSjJ2iyfP-5" target="bCXpYe_5tngzSjJ2iyfP-7">
          <mxGeometry relative="1" as="geometry">
            <mxPoint x="615" y="230" as="targetPoint" />
          </mxGeometry>
        </mxCell>
        <mxCell id="bCXpYe_5tngzSjJ2iyfP-5" value="&quot;Opções disponíveis:&amp;nbsp;&lt;div&gt;1. Inserir Email e Senha&lt;/div&gt;&lt;div&gt;2. Esqueceu a Senha&lt;/div&gt;&lt;div&gt;3. Ir Para Cadastro&lt;span style=&quot;background-color: initial;&quot;&gt;&quot;&lt;/span&gt;&lt;/div&gt;" style="shape=document;whiteSpace=wrap;html=1;boundedLbl=1;align=left;" vertex="1" parent="1">
          <mxGeometry x="430" y="30" width="150" height="100" as="geometry" />
        </mxCell>
        <mxCell id="bCXpYe_5tngzSjJ2iyfP-9" style="edgeStyle=orthogonalEdgeStyle;rounded=0;orthogonalLoop=1;jettySize=auto;html=1;exitX=1;exitY=0.5;exitDx=0;exitDy=0;entryX=0;entryY=0.5;entryDx=0;entryDy=0;" edge="1" parent="1" source="bCXpYe_5tngzSjJ2iyfP-7" target="bCXpYe_5tngzSjJ2iyfP-8">
          <mxGeometry relative="1" as="geometry" />
        </mxCell>
        <mxCell id="bCXpYe_5tngzSjJ2iyfP-7" value="Opc" style="shape=parallelogram;perimeter=parallelogramPerimeter;whiteSpace=wrap;html=1;fixedSize=1;" vertex="1" parent="1">
          <mxGeometry x="445" y="180" width="120" height="60" as="geometry" />
        </mxCell>
        <mxCell id="bCXpYe_5tngzSjJ2iyfP-10" style="edgeStyle=orthogonalEdgeStyle;rounded=0;orthogonalLoop=1;jettySize=auto;html=1;exitX=0.5;exitY=0;exitDx=0;exitDy=0;entryX=0.523;entryY=0.87;entryDx=0;entryDy=0;entryPerimeter=0;" edge="1" parent="1" source="bCXpYe_5tngzSjJ2iyfP-8" target="bCXpYe_5tngzSjJ2iyfP-11">
          <mxGeometry relative="1" as="geometry">
            <mxPoint x="775" y="355" as="targetPoint" />
          </mxGeometry>
        </mxCell>
        <mxCell id="bCXpYe_5tngzSjJ2iyfP-13" value="T" style="edgeLabel;html=1;align=center;verticalAlign=middle;resizable=0;points=[];" vertex="1" connectable="0" parent="bCXpYe_5tngzSjJ2iyfP-10">
          <mxGeometry x="-0.5705" y="-5" relative="1" as="geometry">
            <mxPoint x="-7" y="-21" as="offset" />
          </mxGeometry>
        </mxCell>
        <mxCell id="bCXpYe_5tngzSjJ2iyfP-8" value="Opc != 1&amp;nbsp;&lt;span style=&quot;background-color: initial;&quot;&gt;&amp;amp;&amp;amp;&lt;/span&gt;&lt;div&gt;&lt;span style=&quot;background-color: initial;&quot;&gt;Opc != 2&amp;nbsp;&lt;/span&gt;&lt;span style=&quot;background-color: initial;&quot;&gt;&amp;amp;&amp;amp;&lt;/span&gt;&lt;/div&gt;&lt;div&gt;&lt;span style=&quot;background-color: initial;&quot;&gt;Opc != 3&lt;/span&gt;&lt;/div&gt;" style="rhombus;whiteSpace=wrap;html=1;" vertex="1" parent="1">
          <mxGeometry x="609" y="165" width="125" height="90" as="geometry" />
        </mxCell>
        <mxCell id="bCXpYe_5tngzSjJ2iyfP-11" value="&quot;Escolha uma opção válida!&quot;" style="shape=document;whiteSpace=wrap;html=1;boundedLbl=1;" vertex="1" parent="1">
          <mxGeometry x="609" y="30" width="120" height="80" as="geometry" />
        </mxCell>
        <mxCell id="bCXpYe_5tngzSjJ2iyfP-15" style="edgeStyle=orthogonalEdgeStyle;rounded=0;orthogonalLoop=1;jettySize=auto;html=1;exitX=0;exitY=0.5;exitDx=0;exitDy=0;entryX=1;entryY=0.4;entryDx=0;entryDy=0;entryPerimeter=0;" edge="1" parent="1" source="bCXpYe_5tngzSjJ2iyfP-11" target="bCXpYe_5tngzSjJ2iyfP-5">
          <mxGeometry relative="1" as="geometry" />
        </mxCell>
        <mxCell id="bCXpYe_5tngzSjJ2iyfP-23" style="edgeStyle=orthogonalEdgeStyle;rounded=0;orthogonalLoop=1;jettySize=auto;html=1;exitX=0;exitY=0.5;exitDx=0;exitDy=0;" edge="1" parent="1" source="bCXpYe_5tngzSjJ2iyfP-19" target="bCXpYe_5tngzSjJ2iyfP-24">
          <mxGeometry relative="1" as="geometry">
            <mxPoint x="580" y="330.1428571428571" as="targetPoint" />
          </mxGeometry>
        </mxCell>
        <mxCell id="bCXpYe_5tngzSjJ2iyfP-27" value="F" style="edgeLabel;html=1;align=center;verticalAlign=middle;resizable=0;points=[];" vertex="1" connectable="0" parent="bCXpYe_5tngzSjJ2iyfP-23">
          <mxGeometry x="-0.0757" y="4" relative="1" as="geometry">
            <mxPoint as="offset" />
          </mxGeometry>
        </mxCell>
        <mxCell id="bCXpYe_5tngzSjJ2iyfP-30" style="edgeStyle=orthogonalEdgeStyle;rounded=0;orthogonalLoop=1;jettySize=auto;html=1;exitX=0.5;exitY=1;exitDx=0;exitDy=0;entryX=0.5;entryY=0;entryDx=0;entryDy=0;" edge="1" parent="1" source="bCXpYe_5tngzSjJ2iyfP-19" target="bCXpYe_5tngzSjJ2iyfP-29">
          <mxGeometry relative="1" as="geometry" />
        </mxCell>
        <mxCell id="bCXpYe_5tngzSjJ2iyfP-87" value="T" style="edgeLabel;html=1;align=center;verticalAlign=middle;resizable=0;points=[];" vertex="1" connectable="0" parent="bCXpYe_5tngzSjJ2iyfP-30">
          <mxGeometry x="-0.4444" relative="1" as="geometry">
            <mxPoint as="offset" />
          </mxGeometry>
        </mxCell>
        <mxCell id="bCXpYe_5tngzSjJ2iyfP-19" value="Opc === 1" style="rhombus;whiteSpace=wrap;html=1;" vertex="1" parent="1">
          <mxGeometry x="631.5" y="290" width="80" height="80" as="geometry" />
        </mxCell>
        <mxCell id="bCXpYe_5tngzSjJ2iyfP-20" style="edgeStyle=orthogonalEdgeStyle;rounded=0;orthogonalLoop=1;jettySize=auto;html=1;exitX=0.5;exitY=1;exitDx=0;exitDy=0;entryX=0.5;entryY=0;entryDx=0;entryDy=0;" edge="1" parent="1" source="bCXpYe_5tngzSjJ2iyfP-8" target="bCXpYe_5tngzSjJ2iyfP-19">
          <mxGeometry relative="1" as="geometry" />
        </mxCell>
        <mxCell id="bCXpYe_5tngzSjJ2iyfP-22" value="F" style="edgeLabel;html=1;align=center;verticalAlign=middle;resizable=0;points=[];" vertex="1" connectable="0" parent="bCXpYe_5tngzSjJ2iyfP-20">
          <mxGeometry x="-0.2984" y="-1" relative="1" as="geometry">
            <mxPoint as="offset" />
          </mxGeometry>
        </mxCell>
        <mxCell id="bCXpYe_5tngzSjJ2iyfP-26" value="" style="edgeStyle=orthogonalEdgeStyle;rounded=0;orthogonalLoop=1;jettySize=auto;html=1;" edge="1" parent="1" source="bCXpYe_5tngzSjJ2iyfP-24" target="bCXpYe_5tngzSjJ2iyfP-25">
          <mxGeometry relative="1" as="geometry" />
        </mxCell>
        <mxCell id="bCXpYe_5tngzSjJ2iyfP-28" value="F" style="edgeLabel;html=1;align=center;verticalAlign=middle;resizable=0;points=[];" vertex="1" connectable="0" parent="bCXpYe_5tngzSjJ2iyfP-26">
          <mxGeometry x="0.0097" y="-3" relative="1" as="geometry">
            <mxPoint as="offset" />
          </mxGeometry>
        </mxCell>
        <mxCell id="bCXpYe_5tngzSjJ2iyfP-41" style="edgeStyle=orthogonalEdgeStyle;rounded=0;orthogonalLoop=1;jettySize=auto;html=1;" edge="1" parent="1" source="bCXpYe_5tngzSjJ2iyfP-24" target="bCXpYe_5tngzSjJ2iyfP-42">
          <mxGeometry relative="1" as="geometry">
            <mxPoint x="489.9999999999999" y="400" as="targetPoint" />
          </mxGeometry>
        </mxCell>
        <mxCell id="bCXpYe_5tngzSjJ2iyfP-86" value="T" style="edgeLabel;html=1;align=center;verticalAlign=middle;resizable=0;points=[];" vertex="1" connectable="0" parent="bCXpYe_5tngzSjJ2iyfP-41">
          <mxGeometry x="0.6" relative="1" as="geometry">
            <mxPoint as="offset" />
          </mxGeometry>
        </mxCell>
        <mxCell id="bCXpYe_5tngzSjJ2iyfP-24" value="Opc === 2" style="rhombus;whiteSpace=wrap;html=1;" vertex="1" parent="1">
          <mxGeometry x="450" y="290.0028571428571" width="80" height="80" as="geometry" />
        </mxCell>
        <mxCell id="bCXpYe_5tngzSjJ2iyfP-98" style="edgeStyle=orthogonalEdgeStyle;rounded=0;orthogonalLoop=1;jettySize=auto;html=1;exitX=0.5;exitY=1;exitDx=0;exitDy=0;entryX=0.5;entryY=0;entryDx=0;entryDy=0;" edge="1" parent="1" source="bCXpYe_5tngzSjJ2iyfP-25" target="bCXpYe_5tngzSjJ2iyfP-97">
          <mxGeometry relative="1" as="geometry" />
        </mxCell>
        <mxCell id="bCXpYe_5tngzSjJ2iyfP-25" value="Opc === 3" style="rhombus;whiteSpace=wrap;html=1;" vertex="1" parent="1">
          <mxGeometry x="70" y="290.0028571428571" width="80" height="80" as="geometry" />
        </mxCell>
        <mxCell id="bCXpYe_5tngzSjJ2iyfP-31" style="edgeStyle=orthogonalEdgeStyle;rounded=0;orthogonalLoop=1;jettySize=auto;html=1;" edge="1" parent="1" source="bCXpYe_5tngzSjJ2iyfP-29" target="bCXpYe_5tngzSjJ2iyfP-32">
          <mxGeometry relative="1" as="geometry">
            <mxPoint x="671.5" y="510" as="targetPoint" />
          </mxGeometry>
        </mxCell>
        <mxCell id="bCXpYe_5tngzSjJ2iyfP-29" value="&quot;Digite Seu Email e sua Senha&quot;" style="shape=document;whiteSpace=wrap;html=1;boundedLbl=1;" vertex="1" parent="1">
          <mxGeometry x="611.5" y="400" width="120" height="80" as="geometry" />
        </mxCell>
        <mxCell id="bCXpYe_5tngzSjJ2iyfP-34" style="edgeStyle=orthogonalEdgeStyle;rounded=0;orthogonalLoop=1;jettySize=auto;html=1;exitX=0.5;exitY=1;exitDx=0;exitDy=0;entryX=0.5;entryY=0;entryDx=0;entryDy=0;" edge="1" parent="1" source="bCXpYe_5tngzSjJ2iyfP-32" target="bCXpYe_5tngzSjJ2iyfP-33">
          <mxGeometry relative="1" as="geometry" />
        </mxCell>
        <mxCell id="bCXpYe_5tngzSjJ2iyfP-32" value="loginEmail,&lt;div&gt;loginSenha&lt;/div&gt;" style="shape=parallelogram;perimeter=parallelogramPerimeter;whiteSpace=wrap;html=1;fixedSize=1;" vertex="1" parent="1">
          <mxGeometry x="611.5" y="500" width="120" height="60" as="geometry" />
        </mxCell>
        <mxCell id="bCXpYe_5tngzSjJ2iyfP-161" style="edgeStyle=orthogonalEdgeStyle;rounded=0;orthogonalLoop=1;jettySize=auto;html=1;exitX=0.5;exitY=1;exitDx=0;exitDy=0;" edge="1" parent="1" source="bCXpYe_5tngzSjJ2iyfP-33" target="bCXpYe_5tngzSjJ2iyfP-162">
          <mxGeometry relative="1" as="geometry">
            <mxPoint x="671.4285714285713" y="720" as="targetPoint" />
          </mxGeometry>
        </mxCell>
        <mxCell id="bCXpYe_5tngzSjJ2iyfP-169" value="T" style="edgeLabel;html=1;align=center;verticalAlign=middle;resizable=0;points=[];" vertex="1" connectable="0" parent="bCXpYe_5tngzSjJ2iyfP-161">
          <mxGeometry x="-0.1109" y="1" relative="1" as="geometry">
            <mxPoint as="offset" />
          </mxGeometry>
        </mxCell>
        <mxCell id="bCXpYe_5tngzSjJ2iyfP-33" value="loginEmail é um&amp;nbsp;&lt;div&gt;email cadastrado?&lt;/div&gt;" style="rhombus;whiteSpace=wrap;html=1;" vertex="1" parent="1">
          <mxGeometry x="598.69" y="600" width="145.63" height="100" as="geometry" />
        </mxCell>
        <mxCell id="bCXpYe_5tngzSjJ2iyfP-159" style="edgeStyle=orthogonalEdgeStyle;rounded=0;orthogonalLoop=1;jettySize=auto;html=1;entryX=0.75;entryY=0;entryDx=0;entryDy=0;exitX=0.5;exitY=0;exitDx=0;exitDy=0;" edge="1" parent="1" source="bCXpYe_5tngzSjJ2iyfP-37" target="bCXpYe_5tngzSjJ2iyfP-5">
          <mxGeometry relative="1" as="geometry">
            <mxPoint x="770" y="10" as="targetPoint" />
          </mxGeometry>
        </mxCell>
        <mxCell id="bCXpYe_5tngzSjJ2iyfP-37" value="&quot;Email não encontrado&quot;" style="shape=document;whiteSpace=wrap;html=1;boundedLbl=1;" vertex="1" parent="1">
          <mxGeometry x="734" y="540" width="86" height="60" as="geometry" />
        </mxCell>
        <mxCell id="bCXpYe_5tngzSjJ2iyfP-43" style="edgeStyle=orthogonalEdgeStyle;rounded=0;orthogonalLoop=1;jettySize=auto;html=1;" edge="1" parent="1" source="bCXpYe_5tngzSjJ2iyfP-42" target="bCXpYe_5tngzSjJ2iyfP-44">
          <mxGeometry relative="1" as="geometry">
            <mxPoint x="489.9999999999999" y="489.9999999999999" as="targetPoint" />
          </mxGeometry>
        </mxCell>
        <mxCell id="bCXpYe_5tngzSjJ2iyfP-42" value="&quot;Digite seu email&quot;" style="shape=document;whiteSpace=wrap;html=1;boundedLbl=1;" vertex="1" parent="1">
          <mxGeometry x="429.9999999999999" y="390" width="120" height="80" as="geometry" />
        </mxCell>
        <mxCell id="bCXpYe_5tngzSjJ2iyfP-45" style="edgeStyle=orthogonalEdgeStyle;rounded=0;orthogonalLoop=1;jettySize=auto;html=1;exitX=0.5;exitY=1;exitDx=0;exitDy=0;" edge="1" parent="1" source="bCXpYe_5tngzSjJ2iyfP-44">
          <mxGeometry relative="1" as="geometry">
            <mxPoint x="490" y="560" as="targetPoint" />
            <Array as="points">
              <mxPoint x="490" y="560" />
              <mxPoint x="490" y="560" />
            </Array>
          </mxGeometry>
        </mxCell>
        <mxCell id="bCXpYe_5tngzSjJ2iyfP-44" value="recEmail" style="shape=parallelogram;perimeter=parallelogramPerimeter;whiteSpace=wrap;html=1;fixedSize=1;" vertex="1" parent="1">
          <mxGeometry x="429.9999999999999" y="479.9999999999999" width="120" height="60" as="geometry" />
        </mxCell>
        <mxCell id="bCXpYe_5tngzSjJ2iyfP-50" style="edgeStyle=orthogonalEdgeStyle;rounded=0;orthogonalLoop=1;jettySize=auto;html=1;exitX=0;exitY=0.5;exitDx=0;exitDy=0;" edge="1" parent="1" source="bCXpYe_5tngzSjJ2iyfP-49" target="bCXpYe_5tngzSjJ2iyfP-51">
          <mxGeometry relative="1" as="geometry">
            <mxPoint x="399.9999999999999" y="605.1538461538461" as="targetPoint" />
          </mxGeometry>
        </mxCell>
        <mxCell id="bCXpYe_5tngzSjJ2iyfP-61" style="edgeStyle=orthogonalEdgeStyle;rounded=0;orthogonalLoop=1;jettySize=auto;html=1;exitX=0.5;exitY=1;exitDx=0;exitDy=0;" edge="1" parent="1" source="bCXpYe_5tngzSjJ2iyfP-49" target="bCXpYe_5tngzSjJ2iyfP-62">
          <mxGeometry relative="1" as="geometry">
            <mxPoint x="490.2352941176471" y="680" as="targetPoint" />
          </mxGeometry>
        </mxCell>
        <mxCell id="bCXpYe_5tngzSjJ2iyfP-49" value="recEmail é um&amp;nbsp;&lt;div&gt;email cadastrado?&lt;/div&gt;" style="rhombus;whiteSpace=wrap;html=1;" vertex="1" parent="1">
          <mxGeometry x="420" y="560" width="140" height="90" as="geometry" />
        </mxCell>
        <mxCell id="bCXpYe_5tngzSjJ2iyfP-96" style="edgeStyle=orthogonalEdgeStyle;rounded=0;orthogonalLoop=1;jettySize=auto;html=1;entryX=1;entryY=0.5;entryDx=0;entryDy=0;" edge="1" parent="1" source="bCXpYe_5tngzSjJ2iyfP-51" target="bCXpYe_5tngzSjJ2iyfP-53">
          <mxGeometry relative="1" as="geometry">
            <Array as="points">
              <mxPoint x="260" y="610" />
              <mxPoint x="260" y="1090" />
            </Array>
          </mxGeometry>
        </mxCell>
        <mxCell id="bCXpYe_5tngzSjJ2iyfP-51" value="&quot;Email não encontrado&lt;span style=&quot;background-color: initial;&quot;&gt;&quot;&lt;/span&gt;" style="shape=document;whiteSpace=wrap;html=1;boundedLbl=1;" vertex="1" parent="1">
          <mxGeometry x="269.9999999999999" y="570.0038461538461" width="120" height="80" as="geometry" />
        </mxCell>
        <mxCell id="bCXpYe_5tngzSjJ2iyfP-54" style="edgeStyle=orthogonalEdgeStyle;rounded=0;orthogonalLoop=1;jettySize=auto;html=1;exitX=0.5;exitY=0;exitDx=0;exitDy=0;" edge="1" parent="1">
          <mxGeometry relative="1" as="geometry">
            <mxPoint x="450" y="210" as="targetPoint" />
            <mxPoint x="90" y="1050" as="sourcePoint" />
            <Array as="points">
              <mxPoint x="30" y="1050" />
              <mxPoint x="30" y="210" />
            </Array>
          </mxGeometry>
        </mxCell>
        <mxCell id="bCXpYe_5tngzSjJ2iyfP-53" value="Opções disponíveis:&lt;div&gt;1. Ir para login&lt;/div&gt;&lt;div&gt;2. Recuperar Senha&lt;/div&gt;&lt;div&gt;3. Ir para cadastro&lt;/div&gt;" style="shape=document;whiteSpace=wrap;html=1;boundedLbl=1;align=left;" vertex="1" parent="1">
          <mxGeometry x="19.999999999999886" y="1050" width="120" height="80" as="geometry" />
        </mxCell>
        <mxCell id="bCXpYe_5tngzSjJ2iyfP-63" style="edgeStyle=orthogonalEdgeStyle;rounded=0;orthogonalLoop=1;jettySize=auto;html=1;entryX=0.5;entryY=0;entryDx=0;entryDy=0;" edge="1" parent="1" source="bCXpYe_5tngzSjJ2iyfP-62" target="bCXpYe_5tngzSjJ2iyfP-65">
          <mxGeometry relative="1" as="geometry">
            <mxPoint x="489.9952941176473" y="750" as="targetPoint" />
            <Array as="points">
              <mxPoint x="490" y="740" />
              <mxPoint x="490" y="740" />
            </Array>
          </mxGeometry>
        </mxCell>
        <mxCell id="bCXpYe_5tngzSjJ2iyfP-62" value="&lt;div&gt;cod = &#39;valor randon&#39;&lt;/div&gt;Enviar código para&lt;div&gt;o email&lt;/div&gt;" style="rounded=0;whiteSpace=wrap;html=1;" vertex="1" parent="1">
          <mxGeometry x="429.99529411764706" y="670" width="120" height="60" as="geometry" />
        </mxCell>
        <mxCell id="bCXpYe_5tngzSjJ2iyfP-67" style="edgeStyle=orthogonalEdgeStyle;rounded=0;orthogonalLoop=1;jettySize=auto;html=1;entryX=0.5;entryY=0;entryDx=0;entryDy=0;" edge="1" parent="1" source="bCXpYe_5tngzSjJ2iyfP-65" target="bCXpYe_5tngzSjJ2iyfP-66">
          <mxGeometry relative="1" as="geometry" />
        </mxCell>
        <mxCell id="bCXpYe_5tngzSjJ2iyfP-65" value="&quot;Digite o código enviado para seu email&quot;" style="shape=document;whiteSpace=wrap;html=1;boundedLbl=1;" vertex="1" parent="1">
          <mxGeometry x="430" y="750" width="120" height="80" as="geometry" />
        </mxCell>
        <mxCell id="bCXpYe_5tngzSjJ2iyfP-68" style="edgeStyle=orthogonalEdgeStyle;rounded=0;orthogonalLoop=1;jettySize=auto;html=1;exitX=0;exitY=0.5;exitDx=0;exitDy=0;" edge="1" parent="1" source="bCXpYe_5tngzSjJ2iyfP-66" target="bCXpYe_5tngzSjJ2iyfP-69">
          <mxGeometry relative="1" as="geometry">
            <mxPoint x="400" y="880" as="targetPoint" />
          </mxGeometry>
        </mxCell>
        <mxCell id="bCXpYe_5tngzSjJ2iyfP-66" value="codRecebido" style="shape=parallelogram;perimeter=parallelogramPerimeter;whiteSpace=wrap;html=1;fixedSize=1;" vertex="1" parent="1">
          <mxGeometry x="430" y="850" width="120" height="60" as="geometry" />
        </mxCell>
        <mxCell id="bCXpYe_5tngzSjJ2iyfP-70" style="edgeStyle=orthogonalEdgeStyle;rounded=0;orthogonalLoop=1;jettySize=auto;html=1;exitX=0.5;exitY=0;exitDx=0;exitDy=0;" edge="1" parent="1" source="bCXpYe_5tngzSjJ2iyfP-69" target="bCXpYe_5tngzSjJ2iyfP-71">
          <mxGeometry relative="1" as="geometry">
            <mxPoint x="330.1428571428571" y="820" as="targetPoint" />
          </mxGeometry>
        </mxCell>
        <mxCell id="bCXpYe_5tngzSjJ2iyfP-73" value="" style="edgeStyle=orthogonalEdgeStyle;rounded=0;orthogonalLoop=1;jettySize=auto;html=1;" edge="1" parent="1" source="bCXpYe_5tngzSjJ2iyfP-69" target="bCXpYe_5tngzSjJ2iyfP-71">
          <mxGeometry relative="1" as="geometry" />
        </mxCell>
        <mxCell id="bCXpYe_5tngzSjJ2iyfP-74" value="F" style="edgeLabel;html=1;align=center;verticalAlign=middle;resizable=0;points=[];" vertex="1" connectable="0" parent="bCXpYe_5tngzSjJ2iyfP-73">
          <mxGeometry x="0.6556" y="-1" relative="1" as="geometry">
            <mxPoint x="-1" y="11" as="offset" />
          </mxGeometry>
        </mxCell>
        <mxCell id="bCXpYe_5tngzSjJ2iyfP-75" style="edgeStyle=orthogonalEdgeStyle;rounded=0;orthogonalLoop=1;jettySize=auto;html=1;exitX=0.5;exitY=1;exitDx=0;exitDy=0;" edge="1" parent="1" source="bCXpYe_5tngzSjJ2iyfP-69">
          <mxGeometry relative="1" as="geometry">
            <mxPoint x="330" y="960" as="targetPoint" />
          </mxGeometry>
        </mxCell>
        <mxCell id="bCXpYe_5tngzSjJ2iyfP-76" value="T" style="edgeLabel;html=1;align=center;verticalAlign=middle;resizable=0;points=[];" vertex="1" connectable="0" parent="bCXpYe_5tngzSjJ2iyfP-75">
          <mxGeometry x="-0.3256" relative="1" as="geometry">
            <mxPoint as="offset" />
          </mxGeometry>
        </mxCell>
        <mxCell id="bCXpYe_5tngzSjJ2iyfP-69" value="codRecebido&lt;div&gt;== cod&lt;/div&gt;" style="rhombus;whiteSpace=wrap;html=1;" vertex="1" parent="1">
          <mxGeometry x="280" y="840" width="100" height="80" as="geometry" />
        </mxCell>
        <mxCell id="bCXpYe_5tngzSjJ2iyfP-71" value="&quot;Código invalido&quot;" style="shape=document;whiteSpace=wrap;html=1;boundedLbl=1;" vertex="1" parent="1">
          <mxGeometry x="270.0028571428571" y="730" width="120" height="80" as="geometry" />
        </mxCell>
        <mxCell id="bCXpYe_5tngzSjJ2iyfP-72" style="edgeStyle=orthogonalEdgeStyle;rounded=0;orthogonalLoop=1;jettySize=auto;html=1;" edge="1" parent="1" source="bCXpYe_5tngzSjJ2iyfP-71">
          <mxGeometry relative="1" as="geometry">
            <mxPoint x="430" y="780" as="targetPoint" />
            <Array as="points">
              <mxPoint x="410" y="770" />
              <mxPoint x="410" y="781" />
            </Array>
          </mxGeometry>
        </mxCell>
        <mxCell id="bCXpYe_5tngzSjJ2iyfP-77" value="&quot;Digite sua nova senha e a confirme&quot;" style="shape=document;whiteSpace=wrap;html=1;boundedLbl=1;" vertex="1" parent="1">
          <mxGeometry x="280" y="960" width="110" height="80" as="geometry" />
        </mxCell>
        <mxCell id="bCXpYe_5tngzSjJ2iyfP-81" style="edgeStyle=orthogonalEdgeStyle;rounded=0;orthogonalLoop=1;jettySize=auto;html=1;exitX=0.5;exitY=1;exitDx=0;exitDy=0;entryX=0.5;entryY=0;entryDx=0;entryDy=0;" edge="1" parent="1" source="bCXpYe_5tngzSjJ2iyfP-78" target="bCXpYe_5tngzSjJ2iyfP-80">
          <mxGeometry relative="1" as="geometry" />
        </mxCell>
        <mxCell id="bCXpYe_5tngzSjJ2iyfP-78" value="novaSenha1,&lt;div&gt;novaSenha2&lt;/div&gt;" style="shape=parallelogram;perimeter=parallelogramPerimeter;whiteSpace=wrap;html=1;fixedSize=1;" vertex="1" parent="1">
          <mxGeometry x="420" y="960" width="120" height="60" as="geometry" />
        </mxCell>
        <mxCell id="bCXpYe_5tngzSjJ2iyfP-79" style="edgeStyle=orthogonalEdgeStyle;rounded=0;orthogonalLoop=1;jettySize=auto;html=1;entryX=0.057;entryY=0.672;entryDx=0;entryDy=0;entryPerimeter=0;" edge="1" parent="1" source="bCXpYe_5tngzSjJ2iyfP-77" target="bCXpYe_5tngzSjJ2iyfP-78">
          <mxGeometry relative="1" as="geometry" />
        </mxCell>
        <mxCell id="bCXpYe_5tngzSjJ2iyfP-82" style="edgeStyle=orthogonalEdgeStyle;rounded=0;orthogonalLoop=1;jettySize=auto;html=1;exitX=0;exitY=0.5;exitDx=0;exitDy=0;" edge="1" parent="1" source="bCXpYe_5tngzSjJ2iyfP-80" target="bCXpYe_5tngzSjJ2iyfP-83">
          <mxGeometry relative="1" as="geometry">
            <mxPoint x="380.0000000000001" y="1089.857142857143" as="targetPoint" />
          </mxGeometry>
        </mxCell>
        <mxCell id="bCXpYe_5tngzSjJ2iyfP-88" style="edgeStyle=orthogonalEdgeStyle;rounded=0;orthogonalLoop=1;jettySize=auto;html=1;exitX=1;exitY=0.5;exitDx=0;exitDy=0;" edge="1" parent="1" source="bCXpYe_5tngzSjJ2iyfP-80" target="bCXpYe_5tngzSjJ2iyfP-89">
          <mxGeometry relative="1" as="geometry">
            <mxPoint x="560" y="1100" as="targetPoint" />
          </mxGeometry>
        </mxCell>
        <mxCell id="bCXpYe_5tngzSjJ2iyfP-80" value="novaSenha1&lt;div&gt;==&lt;br&gt;&lt;div&gt;novaSenha2&lt;/div&gt;&lt;/div&gt;" style="rhombus;whiteSpace=wrap;html=1;" vertex="1" parent="1">
          <mxGeometry x="410" y="1050" width="130" height="100" as="geometry" />
        </mxCell>
        <mxCell id="bCXpYe_5tngzSjJ2iyfP-85" style="edgeStyle=orthogonalEdgeStyle;rounded=0;orthogonalLoop=1;jettySize=auto;html=1;exitX=0.5;exitY=0;exitDx=0;exitDy=0;entryX=0.636;entryY=0.75;entryDx=0;entryDy=0;entryPerimeter=0;" edge="1" parent="1" source="bCXpYe_5tngzSjJ2iyfP-83" target="bCXpYe_5tngzSjJ2iyfP-77">
          <mxGeometry relative="1" as="geometry" />
        </mxCell>
        <mxCell id="bCXpYe_5tngzSjJ2iyfP-83" value="&quot;AS senhas não conferem!&lt;span style=&quot;background-color: initial;&quot;&gt;&quot;&lt;/span&gt;" style="shape=document;whiteSpace=wrap;html=1;boundedLbl=1;" vertex="1" parent="1">
          <mxGeometry x="270.0000000000001" y="1059.997142857143" width="120" height="80" as="geometry" />
        </mxCell>
        <mxCell id="bCXpYe_5tngzSjJ2iyfP-152" style="edgeStyle=orthogonalEdgeStyle;rounded=0;orthogonalLoop=1;jettySize=auto;html=1;" edge="1" parent="1" source="bCXpYe_5tngzSjJ2iyfP-89" target="bCXpYe_5tngzSjJ2iyfP-149">
          <mxGeometry relative="1" as="geometry" />
        </mxCell>
        <mxCell id="bCXpYe_5tngzSjJ2iyfP-89" value="&quot;Senha redefinida com sucesso.&lt;div&gt;Indo para Login!&quot;&lt;/div&gt;" style="shape=document;whiteSpace=wrap;html=1;boundedLbl=1;" vertex="1" parent="1">
          <mxGeometry x="565" y="1060" width="120" height="80" as="geometry" />
        </mxCell>
        <mxCell id="bCXpYe_5tngzSjJ2iyfP-173" style="edgeStyle=orthogonalEdgeStyle;rounded=0;orthogonalLoop=1;jettySize=auto;html=1;exitX=0.551;exitY=0.885;exitDx=0;exitDy=0;exitPerimeter=0;" edge="1" parent="1" source="bCXpYe_5tngzSjJ2iyfP-93">
          <mxGeometry relative="1" as="geometry">
            <mxPoint x="400" y="1230" as="targetPoint" />
            <mxPoint x="760" y="1180" as="sourcePoint" />
            <Array as="points">
              <mxPoint x="766" y="1190" />
              <mxPoint x="400" y="1190" />
            </Array>
          </mxGeometry>
        </mxCell>
        <mxCell id="bCXpYe_5tngzSjJ2iyfP-93" value="&quot;Login realizado com sucesso!&quot;" style="shape=document;whiteSpace=wrap;html=1;boundedLbl=1;" vertex="1" parent="1">
          <mxGeometry x="700" y="1060" width="120" height="80" as="geometry" />
        </mxCell>
        <mxCell id="bCXpYe_5tngzSjJ2iyfP-107" style="edgeStyle=orthogonalEdgeStyle;rounded=0;orthogonalLoop=1;jettySize=auto;html=1;entryX=0.5;entryY=0;entryDx=0;entryDy=0;" edge="1" parent="1" source="bCXpYe_5tngzSjJ2iyfP-97" target="bCXpYe_5tngzSjJ2iyfP-106">
          <mxGeometry relative="1" as="geometry" />
        </mxCell>
        <mxCell id="bCXpYe_5tngzSjJ2iyfP-97" value="&quot;Insira seu&lt;div&gt;&amp;nbsp;Email&quot;&lt;/div&gt;" style="shape=document;whiteSpace=wrap;html=1;boundedLbl=1;" vertex="1" parent="1">
          <mxGeometry x="75" y="390" width="75" height="50" as="geometry" />
        </mxCell>
        <mxCell id="bCXpYe_5tngzSjJ2iyfP-114" style="edgeStyle=orthogonalEdgeStyle;rounded=0;orthogonalLoop=1;jettySize=auto;html=1;exitX=0.5;exitY=0;exitDx=0;exitDy=0;entryX=0.5;entryY=0;entryDx=0;entryDy=0;" edge="1" parent="1" source="bCXpYe_5tngzSjJ2iyfP-100" target="bCXpYe_5tngzSjJ2iyfP-110">
          <mxGeometry relative="1" as="geometry">
            <Array as="points">
              <mxPoint x="237" y="350" />
              <mxPoint x="357" y="350" />
            </Array>
          </mxGeometry>
        </mxCell>
        <mxCell id="bCXpYe_5tngzSjJ2iyfP-125" value="T" style="edgeLabel;html=1;align=center;verticalAlign=middle;resizable=0;points=[];" vertex="1" connectable="0" parent="bCXpYe_5tngzSjJ2iyfP-114">
          <mxGeometry x="-0.1179" y="1" relative="1" as="geometry">
            <mxPoint y="1" as="offset" />
          </mxGeometry>
        </mxCell>
        <mxCell id="bCXpYe_5tngzSjJ2iyfP-127" style="edgeStyle=orthogonalEdgeStyle;rounded=0;orthogonalLoop=1;jettySize=auto;html=1;exitX=0.5;exitY=1;exitDx=0;exitDy=0;" edge="1" parent="1" source="bCXpYe_5tngzSjJ2iyfP-100">
          <mxGeometry relative="1" as="geometry">
            <mxPoint x="170" y="560" as="targetPoint" />
            <Array as="points">
              <mxPoint x="237" y="460" />
              <mxPoint x="170" y="460" />
            </Array>
          </mxGeometry>
        </mxCell>
        <mxCell id="bCXpYe_5tngzSjJ2iyfP-100" value="cadEmail ja cadastrado?" style="rhombus;whiteSpace=wrap;html=1;" vertex="1" parent="1">
          <mxGeometry x="181.57" y="360" width="110" height="80" as="geometry" />
        </mxCell>
        <mxCell id="bCXpYe_5tngzSjJ2iyfP-108" style="edgeStyle=orthogonalEdgeStyle;rounded=0;orthogonalLoop=1;jettySize=auto;html=1;entryX=0;entryY=0.5;entryDx=0;entryDy=0;" edge="1" parent="1" source="bCXpYe_5tngzSjJ2iyfP-106" target="bCXpYe_5tngzSjJ2iyfP-100">
          <mxGeometry relative="1" as="geometry">
            <Array as="points">
              <mxPoint x="160" y="490" />
              <mxPoint x="160" y="400" />
            </Array>
          </mxGeometry>
        </mxCell>
        <mxCell id="bCXpYe_5tngzSjJ2iyfP-106" value="cadEmail" style="shape=parallelogram;perimeter=parallelogramPerimeter;whiteSpace=wrap;html=1;fixedSize=1;" vertex="1" parent="1">
          <mxGeometry x="71.25" y="470" width="82.5" height="40" as="geometry" />
        </mxCell>
        <mxCell id="bCXpYe_5tngzSjJ2iyfP-117" style="edgeStyle=orthogonalEdgeStyle;rounded=0;orthogonalLoop=1;jettySize=auto;html=1;" edge="1" parent="1" source="bCXpYe_5tngzSjJ2iyfP-110" target="bCXpYe_5tngzSjJ2iyfP-118">
          <mxGeometry relative="1" as="geometry">
            <mxPoint x="357.2149999999999" y="480" as="targetPoint" />
          </mxGeometry>
        </mxCell>
        <mxCell id="bCXpYe_5tngzSjJ2iyfP-110" value="&quot;Email ja está em uso&lt;div&gt;Deseja ir para login?&quot;&lt;/div&gt;" style="shape=document;whiteSpace=wrap;html=1;boundedLbl=1;" vertex="1" parent="1">
          <mxGeometry x="301" y="370" width="112.43" height="90" as="geometry" />
        </mxCell>
        <mxCell id="bCXpYe_5tngzSjJ2iyfP-120" style="edgeStyle=orthogonalEdgeStyle;rounded=0;orthogonalLoop=1;jettySize=auto;html=1;exitX=1;exitY=0.5;exitDx=0;exitDy=0;entryX=0;entryY=0.25;entryDx=0;entryDy=0;" edge="1" parent="1" source="bCXpYe_5tngzSjJ2iyfP-118" target="bCXpYe_5tngzSjJ2iyfP-29">
          <mxGeometry relative="1" as="geometry">
            <mxPoint x="570" y="420" as="targetPoint" />
            <Array as="points">
              <mxPoint x="420" y="510" />
              <mxPoint x="420" y="270" />
              <mxPoint x="570" y="270" />
              <mxPoint x="570" y="420" />
            </Array>
          </mxGeometry>
        </mxCell>
        <mxCell id="bCXpYe_5tngzSjJ2iyfP-121" value="T" style="edgeLabel;html=1;align=center;verticalAlign=middle;resizable=0;points=[];" vertex="1" connectable="0" parent="bCXpYe_5tngzSjJ2iyfP-120">
          <mxGeometry x="-0.8236" y="-1" relative="1" as="geometry">
            <mxPoint x="-1" as="offset" />
          </mxGeometry>
        </mxCell>
        <mxCell id="bCXpYe_5tngzSjJ2iyfP-122" value="F" style="edgeStyle=orthogonalEdgeStyle;rounded=0;orthogonalLoop=1;jettySize=auto;html=1;exitX=0;exitY=0.5;exitDx=0;exitDy=0;entryX=1.027;entryY=0.664;entryDx=0;entryDy=0;entryPerimeter=0;" edge="1" parent="1" source="bCXpYe_5tngzSjJ2iyfP-118" target="bCXpYe_5tngzSjJ2iyfP-123">
          <mxGeometry x="-0.3828" relative="1" as="geometry">
            <mxPoint x="290" y="510.3333333333335" as="targetPoint" />
            <mxPoint as="offset" />
          </mxGeometry>
        </mxCell>
        <mxCell id="bCXpYe_5tngzSjJ2iyfP-118" value="Deseja?" style="rhombus;whiteSpace=wrap;html=1;" vertex="1" parent="1">
          <mxGeometry x="317.2149999999999" y="470" width="80" height="80" as="geometry" />
        </mxCell>
        <mxCell id="bCXpYe_5tngzSjJ2iyfP-124" style="edgeStyle=orthogonalEdgeStyle;rounded=0;orthogonalLoop=1;jettySize=auto;html=1;exitX=0;exitY=0.75;exitDx=0;exitDy=0;entryX=0.5;entryY=1;entryDx=0;entryDy=0;" edge="1" parent="1" source="bCXpYe_5tngzSjJ2iyfP-123" target="bCXpYe_5tngzSjJ2iyfP-106">
          <mxGeometry relative="1" as="geometry" />
        </mxCell>
        <mxCell id="bCXpYe_5tngzSjJ2iyfP-123" value="&quot;Insira novamente&quot;" style="shape=document;whiteSpace=wrap;html=1;boundedLbl=1;" vertex="1" parent="1">
          <mxGeometry x="200" y="470" width="91.57" height="60" as="geometry" />
        </mxCell>
        <mxCell id="bCXpYe_5tngzSjJ2iyfP-129" style="edgeStyle=orthogonalEdgeStyle;rounded=0;orthogonalLoop=1;jettySize=auto;html=1;exitX=0.434;exitY=0.906;exitDx=0;exitDy=0;exitPerimeter=0;" edge="1" parent="1" source="bCXpYe_5tngzSjJ2iyfP-128" target="bCXpYe_5tngzSjJ2iyfP-130">
          <mxGeometry relative="1" as="geometry">
            <mxPoint x="130" y="660" as="targetPoint" />
            <Array as="points">
              <mxPoint x="122" y="617" />
              <mxPoint x="122" y="617" />
            </Array>
          </mxGeometry>
        </mxCell>
        <mxCell id="bCXpYe_5tngzSjJ2iyfP-128" value="&quot;Insira sua senha&lt;div&gt;e confirme ela&quot;&lt;/div&gt;" style="shape=document;whiteSpace=wrap;html=1;boundedLbl=1;" vertex="1" parent="1">
          <mxGeometry x="70" y="560" width="120" height="60" as="geometry" />
        </mxCell>
        <mxCell id="bCXpYe_5tngzSjJ2iyfP-132" style="edgeStyle=orthogonalEdgeStyle;rounded=0;orthogonalLoop=1;jettySize=auto;html=1;entryX=0.5;entryY=0;entryDx=0;entryDy=0;" edge="1" parent="1" source="bCXpYe_5tngzSjJ2iyfP-130" target="bCXpYe_5tngzSjJ2iyfP-131">
          <mxGeometry relative="1" as="geometry" />
        </mxCell>
        <mxCell id="bCXpYe_5tngzSjJ2iyfP-130" value="cadSenha1,&lt;div&gt;cadSenha2&lt;/div&gt;" style="shape=parallelogram;perimeter=parallelogramPerimeter;whiteSpace=wrap;html=1;fixedSize=1;" vertex="1" parent="1">
          <mxGeometry x="41.57" y="670" width="98.43" height="50" as="geometry" />
        </mxCell>
        <mxCell id="bCXpYe_5tngzSjJ2iyfP-135" style="edgeStyle=orthogonalEdgeStyle;rounded=0;orthogonalLoop=1;jettySize=auto;html=1;exitX=1;exitY=0.5;exitDx=0;exitDy=0;" edge="1" parent="1" source="bCXpYe_5tngzSjJ2iyfP-131" target="bCXpYe_5tngzSjJ2iyfP-136">
          <mxGeometry relative="1" as="geometry">
            <mxPoint x="200" y="790.1764705882354" as="targetPoint" />
          </mxGeometry>
        </mxCell>
        <mxCell id="bCXpYe_5tngzSjJ2iyfP-138" value="F" style="edgeLabel;html=1;align=center;verticalAlign=middle;resizable=0;points=[];" vertex="1" connectable="0" parent="bCXpYe_5tngzSjJ2iyfP-135">
          <mxGeometry x="-0.3118" y="-2" relative="1" as="geometry">
            <mxPoint as="offset" />
          </mxGeometry>
        </mxCell>
        <mxCell id="bCXpYe_5tngzSjJ2iyfP-139" value="T" style="edgeStyle=orthogonalEdgeStyle;rounded=0;orthogonalLoop=1;jettySize=auto;html=1;exitX=0.5;exitY=1;exitDx=0;exitDy=0;" edge="1" parent="1" source="bCXpYe_5tngzSjJ2iyfP-131">
          <mxGeometry relative="1" as="geometry">
            <mxPoint x="94.82352941176475" y="880" as="targetPoint" />
          </mxGeometry>
        </mxCell>
        <mxCell id="bCXpYe_5tngzSjJ2iyfP-131" value="cadSenha1&lt;div&gt;==&lt;br&gt;&lt;div&gt;cadSenha2&lt;/div&gt;&lt;/div&gt;" style="rhombus;whiteSpace=wrap;html=1;" vertex="1" parent="1">
          <mxGeometry x="40.00000000000001" y="740" width="110" height="100" as="geometry" />
        </mxCell>
        <mxCell id="bCXpYe_5tngzSjJ2iyfP-137" style="edgeStyle=orthogonalEdgeStyle;rounded=0;orthogonalLoop=1;jettySize=auto;html=1;exitX=0.5;exitY=0;exitDx=0;exitDy=0;entryX=1;entryY=0.25;entryDx=0;entryDy=0;" edge="1" parent="1" source="bCXpYe_5tngzSjJ2iyfP-136" target="bCXpYe_5tngzSjJ2iyfP-130">
          <mxGeometry relative="1" as="geometry">
            <Array as="points">
              <mxPoint x="192" y="684" />
            </Array>
          </mxGeometry>
        </mxCell>
        <mxCell id="bCXpYe_5tngzSjJ2iyfP-136" value="&quot;Senhas diferentes!&lt;div&gt;Digite novamente&quot;&lt;/div&gt;" style="shape=document;whiteSpace=wrap;html=1;boundedLbl=1;" vertex="1" parent="1">
          <mxGeometry x="140" y="700" width="103.75" height="70" as="geometry" />
        </mxCell>
        <mxCell id="bCXpYe_5tngzSjJ2iyfP-141" style="edgeStyle=orthogonalEdgeStyle;rounded=0;orthogonalLoop=1;jettySize=auto;html=1;" edge="1" parent="1" source="bCXpYe_5tngzSjJ2iyfP-140" target="bCXpYe_5tngzSjJ2iyfP-142">
          <mxGeometry relative="1" as="geometry">
            <mxPoint x="210" y="940" as="targetPoint" />
            <Array as="points">
              <mxPoint x="210" y="905" />
              <mxPoint x="210" y="930" />
            </Array>
          </mxGeometry>
        </mxCell>
        <mxCell id="bCXpYe_5tngzSjJ2iyfP-140" value="&quot;Digite seu Nome&quot;" style="shape=document;whiteSpace=wrap;html=1;boundedLbl=1;" vertex="1" parent="1">
          <mxGeometry x="61.57" y="880" width="108.43" height="50" as="geometry" />
        </mxCell>
        <mxCell id="bCXpYe_5tngzSjJ2iyfP-145" style="edgeStyle=orthogonalEdgeStyle;rounded=0;orthogonalLoop=1;jettySize=auto;html=1;entryX=1.008;entryY=0.422;entryDx=0;entryDy=0;entryPerimeter=0;" edge="1" parent="1" source="bCXpYe_5tngzSjJ2iyfP-142" target="bCXpYe_5tngzSjJ2iyfP-144">
          <mxGeometry relative="1" as="geometry">
            <mxPoint x="180" y="985" as="targetPoint" />
            <Array as="points">
              <mxPoint x="180" y="985" />
            </Array>
          </mxGeometry>
        </mxCell>
        <mxCell id="bCXpYe_5tngzSjJ2iyfP-142" value="nome" style="shape=parallelogram;perimeter=parallelogramPerimeter;whiteSpace=wrap;html=1;fixedSize=1;" vertex="1" parent="1">
          <mxGeometry x="170" y="970" width="80" height="30" as="geometry" />
        </mxCell>
        <mxCell id="bCXpYe_5tngzSjJ2iyfP-148" style="edgeStyle=orthogonalEdgeStyle;rounded=0;orthogonalLoop=1;jettySize=auto;html=1;exitX=1;exitY=0.75;exitDx=0;exitDy=0;" edge="1" parent="1" source="bCXpYe_5tngzSjJ2iyfP-144" target="bCXpYe_5tngzSjJ2iyfP-149">
          <mxGeometry relative="1" as="geometry">
            <mxPoint x="690" y="1020" as="targetPoint" />
            <Array as="points">
              <mxPoint x="160" y="1050" />
              <mxPoint x="410" y="1050" />
              <mxPoint x="410" y="1030" />
              <mxPoint x="580" y="1030" />
              <mxPoint x="580" y="1020" />
            </Array>
          </mxGeometry>
        </mxCell>
        <mxCell id="bCXpYe_5tngzSjJ2iyfP-144" value="&quot;É um prazer&quot; nome&lt;div&gt;&quot;Conta criada com sucesso.&lt;/div&gt;&lt;div&gt;Indo para Login&quot;&lt;/div&gt;" style="shape=document;whiteSpace=wrap;html=1;boundedLbl=1;" vertex="1" parent="1">
          <mxGeometry x="50" y="957.5" width="110" height="82.5" as="geometry" />
        </mxCell>
        <mxCell id="bCXpYe_5tngzSjJ2iyfP-155" style="edgeStyle=orthogonalEdgeStyle;rounded=0;orthogonalLoop=1;jettySize=auto;html=1;" edge="1" parent="1" source="bCXpYe_5tngzSjJ2iyfP-149" target="bCXpYe_5tngzSjJ2iyfP-165">
          <mxGeometry relative="1" as="geometry">
            <mxPoint x="590" y="810" as="targetPoint" />
            <Array as="points">
              <mxPoint x="625" y="880" />
              <mxPoint x="590" y="880" />
            </Array>
          </mxGeometry>
        </mxCell>
        <mxCell id="bCXpYe_5tngzSjJ2iyfP-149" value="" style="shape=waypoint;sketch=0;fillStyle=solid;size=6;pointerEvents=1;points=[];fillColor=none;resizable=0;rotatable=0;perimeter=centerPerimeter;snapToPoint=1;" vertex="1" parent="1">
          <mxGeometry x="615" y="1010" width="20" height="20" as="geometry" />
        </mxCell>
        <mxCell id="bCXpYe_5tngzSjJ2iyfP-160" style="edgeStyle=orthogonalEdgeStyle;rounded=0;orthogonalLoop=1;jettySize=auto;html=1;exitX=1;exitY=0.5;exitDx=0;exitDy=0;entryX=0.508;entryY=0.893;entryDx=0;entryDy=0;entryPerimeter=0;" edge="1" parent="1" source="bCXpYe_5tngzSjJ2iyfP-33" target="bCXpYe_5tngzSjJ2iyfP-37">
          <mxGeometry relative="1" as="geometry" />
        </mxCell>
        <mxCell id="bCXpYe_5tngzSjJ2iyfP-168" value="F" style="edgeLabel;html=1;align=center;verticalAlign=middle;resizable=0;points=[];" vertex="1" connectable="0" parent="bCXpYe_5tngzSjJ2iyfP-160">
          <mxGeometry x="-0.5098" y="2" relative="1" as="geometry">
            <mxPoint as="offset" />
          </mxGeometry>
        </mxCell>
        <mxCell id="bCXpYe_5tngzSjJ2iyfP-164" style="edgeStyle=orthogonalEdgeStyle;rounded=0;orthogonalLoop=1;jettySize=auto;html=1;exitX=0;exitY=0.5;exitDx=0;exitDy=0;" edge="1" parent="1" source="bCXpYe_5tngzSjJ2iyfP-162" target="bCXpYe_5tngzSjJ2iyfP-165">
          <mxGeometry relative="1" as="geometry">
            <mxPoint x="600" y="799.8571428571429" as="targetPoint" />
          </mxGeometry>
        </mxCell>
        <mxCell id="bCXpYe_5tngzSjJ2iyfP-171" value="F" style="edgeLabel;html=1;align=center;verticalAlign=middle;resizable=0;points=[];" vertex="1" connectable="0" parent="bCXpYe_5tngzSjJ2iyfP-164">
          <mxGeometry x="-0.1469" y="2" relative="1" as="geometry">
            <mxPoint as="offset" />
          </mxGeometry>
        </mxCell>
        <mxCell id="bCXpYe_5tngzSjJ2iyfP-167" style="edgeStyle=orthogonalEdgeStyle;rounded=0;orthogonalLoop=1;jettySize=auto;html=1;exitX=0.5;exitY=1;exitDx=0;exitDy=0;" edge="1" parent="1" source="bCXpYe_5tngzSjJ2iyfP-162" target="bCXpYe_5tngzSjJ2iyfP-93">
          <mxGeometry relative="1" as="geometry" />
        </mxCell>
        <mxCell id="bCXpYe_5tngzSjJ2iyfP-172" value="T" style="edgeLabel;html=1;align=center;verticalAlign=middle;resizable=0;points=[];" vertex="1" connectable="0" parent="bCXpYe_5tngzSjJ2iyfP-167">
          <mxGeometry x="-0.8262" relative="1" as="geometry">
            <mxPoint as="offset" />
          </mxGeometry>
        </mxCell>
        <mxCell id="bCXpYe_5tngzSjJ2iyfP-162" value="loginSenha&lt;div&gt;&amp;nbsp;conhecide&amp;nbsp;&lt;span style=&quot;background-color: initial;&quot;&gt;com&lt;/span&gt;&lt;/div&gt;&lt;div&gt;&lt;span style=&quot;background-color: initial;&quot;&gt;&amp;nbsp;o loginEmail?&lt;/span&gt;&lt;/div&gt;" style="rhombus;whiteSpace=wrap;html=1;" vertex="1" parent="1">
          <mxGeometry x="660" y="750" width="130" height="100" as="geometry" />
        </mxCell>
        <mxCell id="bCXpYe_5tngzSjJ2iyfP-166" style="edgeStyle=orthogonalEdgeStyle;rounded=0;orthogonalLoop=1;jettySize=auto;html=1;entryX=0;entryY=0.5;entryDx=0;entryDy=0;" edge="1" parent="1">
          <mxGeometry relative="1" as="geometry">
            <mxPoint x="609" y="440" as="targetPoint" />
            <mxPoint x="587.5" y="799.997142857143" as="sourcePoint" />
            <Array as="points">
              <mxPoint x="587.5" y="635" />
              <mxPoint x="588.5" y="635" />
              <mxPoint x="588.5" y="440" />
            </Array>
          </mxGeometry>
        </mxCell>
        <mxCell id="bCXpYe_5tngzSjJ2iyfP-165" value="" style="shape=waypoint;sketch=0;fillStyle=solid;size=6;pointerEvents=1;points=[];fillColor=none;resizable=0;rotatable=0;perimeter=centerPerimeter;snapToPoint=1;" vertex="1" parent="1">
          <mxGeometry x="580" y="789.9971428571429" width="20" height="20" as="geometry" />
        </mxCell>
        <mxCell id="bCXpYe_5tngzSjJ2iyfP-174" value="Home aberta" style="rounded=0;whiteSpace=wrap;html=1;" vertex="1" parent="1">
          <mxGeometry x="355" y="1230" width="90" height="30" as="geometry" />
        </mxCell>
      </root>
    </mxGraphModel>
  </diagram>
</mxfile>
